# xmcd
#
# Track frame offsets: 
#        150
#        17725
#        30964
#        55819
#        75044
#        95274
#        115601
#        128055
#        143835
#        158435
#        172261
#        186532
#        207134
#        218535
#
# Disc length: 3147 seconds
#
# Revision: 1
# Processed by: cddbd v1.5.2PL0 Copyright (c) Steve Scherf et al.
# Submitted via: ExactAudioCopy v0.99pb4
#
DISCID=a70c490e
DTITLE=Галина Хомчик - Знакомая романтика
DYEAR=2005
DGENRE=Folk
TTITLE0=В час далекий от рассвета
TTITLE1=Ты-моё дыхание
TTITLE2=Белый воробей
TTITLE3=Шансон
TTITLE4=Вересковый куст
TTITLE5=Братья капитаны
TTITLE6=Осень
TTITLE7=Аэропорты XIX века
TTITLE8=Новогодняя
TTITLE9=Попутчик
TTITLE10=Креветка
TTITLE11=Нескучный сад
TTITLE12=Лампочка
TTITLE13=О далёком городе ночном
EXTD=
EXTT0=
EXTT1=
EXTT2=
EXTT3=
EXTT4=
EXTT5=
EXTT6=
EXTT7=
EXTT8=
EXTT9=
EXTT10=
EXTT11=
EXTT12=
EXTT13=
PLAYORDER=
